Coordinates
version=1
nRows=12
nColumns=42
inDegrees=yes

Units are S.I. units (second, meters, Newtons, ...)
If the header above contains a line with 'inDegrees', this indicates whether rotational values are in degrees (yes) or radians (no).

endheader
time	pelvis_tilt	pelvis_list	pelvis_rotation	pelvis_tx	pelvis_ty	pelvis_tz	hip_flexion_r	hip_adduction_r	hip_rotation_r	knee_angle_r	knee_adduction_r	knee_angle_r_beta	ankle_angle_r	subtalar_angle_r	mtp_angle_r	hip_flexion_l	hip_adduction_l	hip_rotation_l	knee_angle_l	knee_adduction_l	knee_angle_l_beta	ankle_angle_l	subtalar_angle_l	mtp_angle_l	lumbar_extension	lumbar_bending	lumbar_rotation	arm_flex_r	arm_add_r	arm_rot_r	elbow_flex_r	pro_sup_r	wrist_flex_r	wrist_dev_r	arm_flex_l	arm_add_l	arm_rot_l	elbow_flex_l	pro_sup_l	wrist_flex_l	wrist_dev_l
      0.90000000	     15.86432258	     -2.55169054	     -2.98438449	     -0.08154282	      0.97377734	     -0.10342128	    -28.43735937	      7.52772934	    -10.64462487	      4.87901070	     -2.70160984	      0.08515480	     16.43371662	     16.78123519	     -7.74607643	      9.58436280	     -2.96367479	     -6.40667716	     17.43746237	      0.24210938	      0.30434113	      1.43829972	      7.51059454	     -7.74607643	    -38.85859613	      3.21101568	     10.26843969	      5.98576867	    -23.28218490	     -0.18044294	     72.58989873	     90.00000001	      0.00000000	      0.00000000	     -7.33028383	    -13.90053329	     -2.84513825	     51.65041046	     90.00000001	      0.00000000	      0.00000000
      0.91000000	     15.57650217	     -2.97222277	     -3.52118908	     -0.06823556	      0.97061041	     -0.10260158	    -28.77152594	      7.72105797	    -10.56083568	      5.49129274	     -2.84071441	      0.09584114	     17.21941109	     17.10752375	     -7.73515932	     10.15644231	     -3.31304717	     -8.30050641	     15.06458625	      0.04851075	      0.26292663	      1.25917180	      9.78312657	     -7.73515932	    -38.65381983	      3.36151481	     10.76194965	      6.35765252	    -23.56257844	      0.27285226	     72.61471575	     90.00000001	      0.00000000	      0.00000000	     -7.87202660	    -13.59905656	     -3.14135757	     51.62821689	     90.00000001	      0.00000000	      0.00000000
      0.92000000	     15.25100026	     -3.40106635	     -4.07374312	     -0.05473115	      0.96736940	     -0.10185054	    -28.96064824	      7.87490014	    -10.89934171	      6.34160566	     -3.07857073	      0.11068190	     18.16570026	     18.20634824	     -7.71436563	     10.79408365	     -3.70476104	    -10.31734141	     13.23062342	     -0.05476219	      0.23091794	      1.43271053	     12.12209053	     -7.71436563	    -38.39503783	      3.53362786	     11.26046842	      6.70229271	    -23.80563882	      0.64753010	     72.57041339	     90.00000001	      0.00000000	      0.00000000	     -8.43542508	    -13.29653398	     -3.34985436	     51.63619863	     90.00000001	      0.00000000	      0.00000000
      0.93000000	     14.87407085	     -3.81141000	     -4.64538810	     -0.04126535	      0.96426586	     -0.10106591	    -29.15963598	      8.00406367	    -10.73780764	      7.08971667	     -3.29327625	      0.12373890	     18.78983892	     18.43761886	     -7.71003564	     11.29482247	     -4.08307988	    -11.42489409	     11.50559538	      0.14822487	      0.20081052	      1.39833788	     12.59930553	     -7.71003564	    -38.10635406	      3.67606613	     11.77418422	      7.04646255	    -23.98767282	      0.96765164	     72.42714422	     90.00000001	      0.00000000	      0.00000000	     -8.90610013	    -13.00466089	     -3.48320959	     51.55277876	     90.00000001	      0.00000000	      0.00000000
      0.94000000	     14.51547781	     -4.10715043	     -5.26749932	     -0.02758342	      0.96133997	     -0.10034545	    -29.29790192	      7.91830810	    -10.81316413	      8.02326423	     -3.49827621	      0.14003238	     19.45332897	     18.98535788	     -7.70625310	     11.75515548	     -4.30215628	    -12.64144649	     10.26075742	      0.22506104	      0.17908400	      1.52809516	     12.96497068	     -7.70625310	    -37.82156724	      3.68899560	     12.24537778	      7.37711009	    -24.13578314	      1.27537289	     72.18675155	     90.00000001	      0.00000000	      0.00000000	     -9.32963272	    -12.71965845	     -3.66011527	     51.43560878	     90.00000001	      0.00000000	      0.00000000
      0.95000000	     14.34578810	     -4.04527338	     -5.83591680	     -0.01329817	      0.95859951	     -0.10000563	    -29.37572233	      7.27965118	    -12.52393617	      9.41481465	     -3.76144417	      0.16431951	     20.69432928	     22.19429638	     -7.69172220	     12.13382390	     -4.03587676	    -14.58595741	      9.75604173	     -0.04855394	      0.17027505	      1.96540152	     14.49277534	     -7.69172220	    -37.62209874	      3.39216123	     12.40023819	      7.62896661	    -24.19412266	      1.58069082	     71.99835034	     90.00000001	      0.00000000	      0.00000000	     -9.80132110	    -12.48015801	     -3.91612738	     51.38335815	     90.00000001	      0.00000000	      0.00000000
      0.96000000	     13.89087675	     -4.33217473	     -6.25896886	      0.00063287	      0.95583771	     -0.09955419	    -29.45022509	      7.19212050	    -12.45374865	     10.28084096	     -3.86869788	      0.17943452	     20.83602929	     22.40994946	     -7.68988777	     12.74249298	     -4.16674258	    -15.17522945	      9.57718616	     -0.13049328	      0.16715343	      2.24032395	     14.21660788	     -7.68988777	    -37.21675014	      3.50739589	     12.71564361	      7.84016537	    -24.18750173	      1.63144196	     71.73303893	     90.00000001	      0.00000000	      0.00000000	    -10.09874978	    -12.29026657	     -3.86990649	     51.19680743	     90.00000001	      0.00000000	      0.00000000
      0.97000000	     13.74322519	     -4.16795126	     -7.01946548	      0.01521695	      0.95355682	     -0.09882662	    -29.49224602	      6.31714453	    -13.67699967	     11.78629914	     -4.25172805	      0.20570973	     21.79827472	     25.39912466	     -7.67822733	     13.02606619	     -3.89881969	    -16.79546984	     10.06989427	     -0.34526006	      0.17575281	      2.68111395	     14.83228443	     -7.67822733	    -36.99929261	      2.97484990	     12.97706600	      7.99061202	    -24.17282706	      1.89523389	     71.41732186	     90.00000001	      0.00000000	      0.00000000	    -10.41261125	    -12.11901096	     -4.01569021	     50.99151069	     90.00000001	      0.00000000	      0.00000000
      0.98000000	     13.42554299	     -4.18477946	     -7.56133844	      0.02976329	      0.95134098	     -0.09826278	    -29.53227809	      5.78535259	    -13.84820595	     12.97870474	     -4.44394585	      0.22652113	     21.91987664	     26.40598994	     -7.67183095	     13.49877340	     -3.79061622	    -17.44608400	     10.95253370	     -0.57150299	      0.19115777	      2.87839239	     14.34880187	     -7.67183095	    -36.63817691	      2.74594151	     13.19843748	      8.07716989	    -24.06295723	      1.91652937	     71.06564176	     90.00000001	      0.00000000	      0.00000000	    -10.60195042	    -12.00984821	     -3.92070723	     50.68656818	     90.00000001	      0.00000000	      0.00000000
      0.99000000	     13.15254953	     -4.11120869	     -8.04729592	      0.04454352	      0.94944741	     -0.09773388	    -29.56740490	      5.18270818	    -13.92527518	     14.23540965	     -4.65293205	      0.24845477	     21.65952445	     27.01830329	     -7.66847336	     13.92978672	     -3.56604979	    -17.75743185	     12.20394205	     -0.87055225	      0.21299897	      2.77386769	     13.64940821	     -7.66847336	    -36.28766046	      2.43613148	     13.30352061	      8.12039029	    -23.86905036	      1.89237438	     70.66925391	     90.00000001	      0.00000000	      0.00000000	    -10.70826306	    -11.95075975	     -3.83014187	     50.29721523	     90.00000001	      0.00000000	      0.00000000
      1.00000000	     12.93533642	     -4.05642187	     -8.43635844	      0.05945214	      0.94790942	     -0.09739563	    -29.59750655	      4.57873454	    -13.79183540	     15.64401347	     -4.71819085	      0.27303954	     21.11647013	     27.45986574	     -7.66642573	     14.26509190	     -3.31205165	    -17.63771137	     13.63492181	     -1.22872527	      0.23797428	      2.41439002	     13.04397868	     -7.66642573	    -35.99464340	      2.19751024	     13.33002470	      8.11887467	    -23.66282577	      1.81361740	     70.32590595	     90.00000001	      0.00000000	      0.00000000	    -10.75172858	    -11.89442742	     -3.71981768	     49.94957721	     90.00000001	      0.00000000	      0.00000000
      1.01000000	     12.88788995	     -3.68732628	     -8.85060127	      0.07489980	      0.94670503	     -0.09702526	    -29.58560697	      3.61231157	    -14.66507844	     17.28747108	     -5.16489559	      0.30172329	     20.55834673	     29.43929283	     -7.65591523	     14.44003137	     -2.70476047	    -17.61643901	     15.32000395	     -1.65288164	      0.26738451	      1.72853694	     11.62451286	     -7.65591523	    -35.74890074	      1.59526774	     13.22560315	      7.94335861	    -23.36716543	      1.63556131	     70.01787692	     90.00000001	      0.00000000	      0.00000000	    -10.75299085	    -12.00313736	     -3.46200161	     49.60136300	     90.00000001	      0.00000000	      0.00000000
